<svg xmlns="http://www.w3.org/2000/svg" viewBox="0 0 168.16 32.79"><defs><style>.cls-1{fill:#e3accf;}.cls-2{fill:none;stroke:#8ac0e2;stroke-miterlimit:10;stroke-width:1.5px;}</style></defs><g id="Layer_2" data-name="Layer 2"><g id="Layer_2-2" data-name="Layer 2"><path class="cls-1" d="M74,31.21c0,1.17-.84,1.52-1.92,1.52H70v-5.6h1.88c1,0,1.87.34,1.87,1.44a1.13,1.13,0,0,1-.84,1.21A1.33,1.33,0,0,1,74,31.21Zm-2.83-1.69h.72a.59.59,0,0,0,.67-.64v-.5a.61.61,0,0,0-.67-.68h-.72Zm1.58,1.34c0-.51-.26-.78-.67-.78h-.91v2.08h.91c.41,0,.67-.22.67-.73Z"/><path class="cls-1" d="M77.33,31.68H75.39l-.35,1H74.4l1.93-5.6H77l1.94,5.6H77.69Zm-.19-.57-.78-2.26-.77,2.26Z"/><path class="cls-1" d="M81.26,30.17l-.51.68v1.88H79.59v-5.6h1.16v2.75l2-2.75h.74l-1.51,2,1.84,3.58H82.53Z"/><path class="cls-1" d="M84.47,27.13h3.15l.19.57H85.63v1.82h1.59v.56H85.63v2.08H88l-.19.57H84.47Z"/><path class="cls-1" d="M91.72,32.73l-1-2.38H90v2.38H88.81v-5.6h2.06c1.08,0,1.93.37,1.93,1.59a1.4,1.4,0,0,1-1,1.48L93,32.73ZM90,29.78h.91c.42,0,.67-.25.67-.9v-.32c0-.64-.25-.86-.67-.86H90Z"/><path class="cls-1" d="M95.94,30.2v2.53H94.79V30.19l-1.67-3.06h1.3l1.27,2.29L97,27.13h.66Z"/><path class="cls-2" d="M59.09,30.1H39.88s-6.24.56-6.8-5.41c0,0,.08-7.14-9.17-5.91L8.39,20.44S1,22,.75,15.6c0,0-.23-6.27,7.64-5L23.83,12.5s8,1.66,9.4-5.33c0,0,.81-6.48,11.24-6.42H84.08"/><path class="cls-2" d="M99.16,30.1h29.12s6.25.56,6.8-5.41c0,0-.07-7.14,9.17-5.91l15.52,1.66s7.38,1.51,7.64-4.84c0,0,.23-6.27-7.64-5L144.33,12.5s-8,1.66-9.4-5.33c0,0-.8-6.48-11.24-6.42H84.08"/><path class="cls-1" d="M43.47,9a5.49,5.49,0,0,0,.46,1.32,35.55,35.55,0,0,0,2.25,4.09c1.32,2.23,2.69,4.47,3.06,6.34.57,2.86-1.8,4.1-4.2,4.18a6.59,6.59,0,0,1-3.25-.61A4.73,4.73,0,0,1,40.22,23a4.61,4.61,0,0,1-.93-2,7.31,7.31,0,0,1,1-4.95c0-.11.12-.11.19-.07s.08.13.06.19a6.84,6.84,0,0,0-.92,4.77,4.81,4.81,0,0,0,.86,1.95,4.52,4.52,0,0,0,1.47,1.26,4.34,4.34,0,0,0,3.19.38c2.31-.59,2.85-2,2.52-3.68a23.33,23.33,0,0,0-3-6.19,45.55,45.55,0,0,1-2.28-4.14c-.89-2-.66-3.48.1-4.41A3.49,3.49,0,0,1,47,5.6a3.48,3.48,0,0,1,1.11,3.87c0,.1-.08.12-.19.12a.13.13,0,0,1-.08-.19,3.28,3.28,0,0,0-1-3.56,2,2,0,0,0-3.23.86A3.53,3.53,0,0,0,43.47,9Z"/><path class="cls-1" d="M97.44,5.5c-.21,2.5-.32,6.45-.32,10.06l.38-.19a32.46,32.46,0,0,1,1.37-8.09c.65-1.76,1.57-2.75,2.85-2.28a2.91,2.91,0,0,1,1.58,2,6.72,6.72,0,0,1,.23,2,8.18,8.18,0,0,1-.44,2.2,8.68,8.68,0,0,1-5.34,5l0,.06c2.69.31,3.28,3,3.74,5.25a8.23,8.23,0,0,0,.65,2.16,4.51,4.51,0,0,0,.84-.92A20.35,20.35,0,0,0,104.81,19c0-.06.1-.12.16-.1s.13.12.09.19a16.67,16.67,0,0,1-1.91,3.73,5.2,5.2,0,0,1-.93,1.05l0,0c0,.05,0,.05,0,.05a1.31,1.31,0,0,1-.82.31c-.88,0-1.15-1.24-1.47-2.75-.33-1.68-.77-3.65-2.16-4.58-.13,2.54-.13,4.81-.15,6.18v1a.15.15,0,0,1-.17.17H96.05c-.06,0-.08,0-.12-.1-.26-.42-.36-3.76-.4-7.69H95.4a.15.15,0,0,1-.15-.08.13.13,0,0,1,.09-.19.6.6,0,0,1,.19-.06c0-3.8.08-8.09.31-10.71A.14.14,0,0,1,96,5.33h1.32a.14.14,0,0,1,.13.13Zm-.19,16.44c0-1.37.06-3.19.17-5.12a1,1,0,0,0-.3-.13C97.16,18.73,97.19,20.57,97.25,21.94Zm.57-6.74a7.86,7.86,0,0,0,3.42-3.51,6.43,6.43,0,0,0,.65-2.43,6.06,6.06,0,0,0-.19-2.16,3,3,0,0,0-1.2-1.77,3.68,3.68,0,0,0-1.36,2A29.54,29.54,0,0,0,97.82,15.2Z"/><path class="cls-1" d="M105.57,20.08c.17,2.39,1.07,1.26,1.87-.19a34,34,0,0,0,2.2-5.14c.06-.44.13-.82.15-1a.13.13,0,0,1,.14-.13h1.35c.06,0,.15.07.15.13s0,0,0,0a32.06,32.06,0,0,0-.42,4.87c0,.78,0,3.72,1.28,2.19a22,22,0,0,0,1.94-3.51.15.15,0,0,1,.19-.11.16.16,0,0,1,.1.19,17.19,17.19,0,0,1-2,3.59c-1.67,2.1-3,.13-3-2.35a27.47,27.47,0,0,1,.09-2.75A28.6,28.6,0,0,1,107.69,20c-.69,1.22-2.06,3.36-3.21,1.36-.84-1.49-.63-4.53-.3-6a.13.13,0,0,1,.13-.13h1.34a.14.14,0,0,1,.13.15v0A17.4,17.4,0,0,0,105.57,20.08Z"/><path class="cls-1" d="M118,20.35a28.89,28.89,0,0,0,3.44-3.17.17.17,0,0,1,.23,0,.17.17,0,0,1,0,.19,35.42,35.42,0,0,1-3.5,3.19c1,1.18,2.14,2.61,1.07,3.89-1.31,1.55-4.6,0-3.72-1.79A7.45,7.45,0,0,1,117,21.19a27.9,27.9,0,0,1-2-2.47,2.86,2.86,0,0,1,0-3.43c1-1.23,3.3-2,4.6-1a2.17,2.17,0,0,1,.53,2.47c0,.09-.11.13-.17.13s-.13-.1-.08-.19a2,2,0,0,0-.47-2.2c-1-.8-2.6.35-3.08,1.3C115.35,17.58,117,19.12,118,20.35Zm-2.23,2.44c-.65,1.47,2.14,2.81,2.69,1.51.38-.84-.9-2.37-1.3-2.9A6.87,6.87,0,0,0,115.75,22.79Z"/><path class="cls-1" d="M123,14.1a23.62,23.62,0,0,0,1,7.64,13.47,13.47,0,0,1,3.2-6.89c.4-.4.86-.71,1.21-.56,2,.75-.25,5.48-.52,6.88-.15.74-.06,1.09.65.11a14.72,14.72,0,0,0,1.87-4c0-.08.1-.13.19-.08s.08.08.08.14a16.57,16.57,0,0,1-1.91,4.06c-1.32,1.91-2.56,1-2.31-.74s1.14-3.36,1.39-5.06c.1-.69-.07-1.05-.49-.61a12.88,12.88,0,0,0-3.08,7.41v.05c0,.06-.06.12-.17.12h-1.32c-.07,0-.09,0-.13-.1a21.64,21.64,0,0,1-1.28-7.88.05.05,0,0,1-.06-.06.19.19,0,0,1,.06-.15c.15-3.63.86-6.74,2.69-9.38.65-1,2.14-2.14,3.36-1.11s.59,3.48.15,4.66A9.57,9.57,0,0,1,123,14.1Zm4.32-5.59c.32-.94.84-3.61-.06-4.3s-1.49,0-2.12,1.17a19.66,19.66,0,0,0-2.14,8.4A9.41,9.41,0,0,0,127.32,8.51Z"/><path class="cls-1" d="M52.5,19.75c.17,2.4,1.08,1.26,1.87-.19a34,34,0,0,0,2.21-5.14c.06-.44.12-.82.14-1s.07-.12.15-.12h1.35c.06,0,.14.06.14.12s0,0,0,0a30.81,30.81,0,0,0-.42,4.87c0,.78,0,3.72,1.28,2.19A21.94,21.94,0,0,0,61.13,17a.16.16,0,0,1,.19-.1.15.15,0,0,1,.11.19,17.72,17.72,0,0,1-2,3.59c-1.68,2.1-3,.12-3-2.36,0-.92,0-1.88.08-2.75a26.58,26.58,0,0,1-1.85,4.14c-.69,1.22-2,3.36-3.21,1.37-.84-1.5-.63-4.54-.29-6a.14.14,0,0,1,.12-.13h1.35a.14.14,0,0,1,.12.15v0A17.82,17.82,0,0,0,52.5,19.75Z"/><path class="cls-1" d="M67.24,14.11h1.35c.06,0,.1.06.1.14v0a36.38,36.38,0,0,0-.27,6.16A10.73,10.73,0,0,0,70.31,17c0-.1.08-.12.19-.1a.11.11,0,0,1,.08.17,11.43,11.43,0,0,1-2.12,3.82c0,3.61.32,8.86-3,11.13s-6.19-.59-4-3.89c1.38-2.1,4-3.65,5.42-5.77,0-1.89-.13-4.16,0-6.2A18.15,18.15,0,0,1,65.06,20a5.51,5.51,0,0,1-1.91,2c-.82.42-1.45,0-1.83-.8-1-2.08.4-7.07,2.84-7.07a1.83,1.83,0,0,1,1.17.39,2.07,2.07,0,0,1,.7.95.16.16,0,0,1-.11.19.21.21,0,0,1-.19-.09,1.3,1.3,0,0,0-.54-.81.74.74,0,0,0-1,.1c-1.24,1.11-1.91,4.68-1.55,6.22.1.44.31.71.67.5a6.35,6.35,0,0,0,1.51-1.72,18.53,18.53,0,0,0,2.29-5.63A.14.14,0,0,1,67.24,14.11ZM61.68,28.28c-2,3.06.84,5.81,3.42,3.11,1.89-2,1.75-6.22,1.75-8.59C65.54,24.79,63,26.24,61.68,28.28Z"/><path class="cls-1" d="M76.9,13.43a31.84,31.84,0,0,0-.29,7.18c.19,1.18.74.45,1.13-.12a25.66,25.66,0,0,0,2-3.51c0-.1.08-.12.19-.1a.17.17,0,0,1,.06.19,23.63,23.63,0,0,1-2,3.59c-1.1,1.61-2.23,1.59-2.76-.09a10.18,10.18,0,0,1-.29-3,16,16,0,0,1-.71,1.91,7,7,0,0,1-1.33,2.1c-1.09,1.09-2.24.5-2.58-.82-.44-1.89.38-6.65,2.84-6.72A2.91,2.91,0,0,1,75,15.37a17.6,17.6,0,0,1,.27-2,.12.12,0,0,1,.12-.12h1.33a.13.13,0,0,1,.14.12Zm-5,5.63c0,1.2.16,3,.84,2.31a6.75,6.75,0,0,0,1.28-2,11.18,11.18,0,0,0,1-3.48,3.06,3.06,0,0,0-1.21-1.32C72.56,14.23,71.91,17,71.87,19.06Z"/><path class="cls-1" d="M83.75,16.88a.16.16,0,0,1,.13.19A29.22,29.22,0,0,0,84,22.32c.13.92.4,1.38.8.6a16.73,16.73,0,0,0,1.26-3.25A21,21,0,0,0,86.77,17a.14.14,0,0,1,.19-.08.11.11,0,0,1,.09.15c-.19.86-.4,1.78-.67,2.68a18.73,18.73,0,0,1-1.31,3.3c-1.17,2.23-2.43.84-2.64-1a20.65,20.65,0,0,1-.19-4.85c-1.76.32-2.81-.12-3.36-.86-1-1.38-.38-3.67.69-4.81.65-.71,1.41-.9,1.58.53a6.48,6.48,0,0,1-.07,1.78,16.81,16.81,0,0,1-.42,2.25A4,4,0,0,0,83.75,16.88Zm-3.67-3.17a2.61,2.61,0,0,0,.37,2.12c.11-.59.28-1.33.36-2a6.38,6.38,0,0,0,.06-1.72s0-.08,0-.15A4.15,4.15,0,0,0,80.08,13.71Z"/></g></g></svg>